<svg width="24" height="24" viewBox="0 0 24 24" fill="none" xmlns="http://www.w3.org/2000/svg">
<g id="Iconly/Light-Outline/Danger Circle">
<g id="Danger Circle">
<path id="Fill 1" fill-rule="evenodd" clip-rule="evenodd" d="M12 1.88093C6.42022 1.88093 1.88094 6.42021 1.88094 12C1.88094 17.5797 6.42022 22.119 12 22.119C17.5797 22.119 22.119 17.5797 22.119 12C22.119 6.42021 17.5797 1.88093 12 1.88093ZM12 23.9047C5.43569 23.9047 0.0952148 18.5643 0.0952148 12C0.0952148 5.43569 5.43569 0.0952148 12 0.0952148C18.5643 0.0952148 23.9047 5.43569 23.9047 12C23.9047 18.5643 18.5643 23.9047 12 23.9047Z" fill="white"/>
<path id="Fill 3" fill-rule="evenodd" clip-rule="evenodd" d="M11.993 13.6345C11.5001 13.6345 11.1001 13.2345 11.1001 12.7416V7.48093C11.1001 6.98807 11.5001 6.58807 11.993 6.58807C12.4858 6.58807 12.8858 6.98807 12.8858 7.48093V12.7416C12.8858 13.2345 12.4858 13.6345 11.993 13.6345Z" fill="white"/>
<path id="Fill 5" fill-rule="evenodd" clip-rule="evenodd" d="M12.0045 17.7094C11.3462 17.7094 10.8081 17.1772 10.8081 16.5189C10.8081 15.8606 11.3355 15.3284 11.9926 15.3284H12.0045C12.6629 15.3284 13.195 15.8606 13.195 16.5189C13.195 17.1772 12.6629 17.7094 12.0045 17.7094Z" fill="white"/>
</g>
</g>
</svg>
